<svg xmlns="http://www.w3.org/2000/svg" width="20" height="20" fill="none">
  <path fill="#8CCFCD" d="M0 0h20v20H0z"/>
  <g stroke="#18181A" clip-path="url(#a)">
    <path fill="#fff" stroke-width=".667" d="M16.748 10A6.75 6.75 0 0 1 10 16.749a6.75 6.75 0 0 1-6.748-6.747 6.748 6.748 0 0 1 13.496 0Z"/>
    <circle cx="10" cy="10.001" r="6.748" fill="#fff" stroke-width=".833"/>
    <path fill="#fff" fill-rule="evenodd" stroke-width=".667" d="M10 16.25c2.621-1.483 4.302-3.772 4.302-6.341 0-2.57-1.68-4.859-4.302-6.342C7.379 5.05 5.698 7.34 5.698 9.91c0 2.569 1.68 4.858 4.302 6.341Z" clip-rule="evenodd"/>
    <path stroke-width=".667" d="M10 3.143v13.604"/>
    <path fill="#8CCFCD" fill-rule="evenodd" stroke-width=".667" d="M10 16.251a6.097 6.097 0 0 0 2.311-4.785A6.097 6.097 0 0 0 10 6.683a6.097 6.097 0 0 0-2.311 4.784c0 1.939.903 3.666 2.311 4.785Z" clip-rule="evenodd"/>
    <path fill="#8CCFCD" fill-rule="evenodd" stroke-linejoin="round" stroke-width=".667" d="M9.998 16.748a6.108 6.108 0 0 0-6.726-6.224 6.748 6.748 0 0 0 6.726 6.224Z" clip-rule="evenodd"/>
    <path fill="#8CCFCD" fill-rule="evenodd" stroke-linejoin="round" stroke-width=".667" d="M16.728 10.524a6.108 6.108 0 0 0-6.726 6.224 6.748 6.748 0 0 0 6.726-6.224Z" clip-rule="evenodd"/>
  </g>
  <defs>
    <clipPath id="a">
      <path fill="#fff" d="M2.5 2.5h15v15h-15z"/>
    </clipPath>
  </defs>
</svg>
